<mxfile host="app.diagrams.net" agent="Mozilla/5.0 (Windows NT 10.0; Win64; x64) AppleWebKit/537.36 (KHTML, like Gecko) Chrome/141.0.0.0 Safari/537.36" version="28.2.5">
  <diagram name="Trang-1" id="5uRed_jwYUmLReIMjKuP">
    <mxGraphModel dx="1895" dy="1022" grid="1" gridSize="10" guides="1" tooltips="1" connect="1" arrows="1" fold="1" page="1" pageScale="1" pageWidth="827" pageHeight="1169" math="0" shadow="0">
      <root>
        <mxCell id="0" />
        <mxCell id="1" parent="0" />
        <mxCell id="pNxZEqLWITCMblgRoXEz-1" value="" style="rounded=1;whiteSpace=wrap;html=1;" vertex="1" parent="1">
          <mxGeometry x="40" y="80" width="120" height="60" as="geometry" />
        </mxCell>
        <mxCell id="pNxZEqLWITCMblgRoXEz-2" value="Entry" style="text;strokeColor=none;align=center;fillColor=none;html=1;verticalAlign=middle;whiteSpace=wrap;rounded=0;fontSize=18;fontStyle=0" vertex="1" parent="1">
          <mxGeometry x="40" y="80" width="120" height="60" as="geometry" />
        </mxCell>
        <mxCell id="pNxZEqLWITCMblgRoXEz-3" value="" style="rounded=1;whiteSpace=wrap;html=1;" vertex="1" parent="1">
          <mxGeometry x="670" y="180" width="120" height="60" as="geometry" />
        </mxCell>
        <mxCell id="pNxZEqLWITCMblgRoXEz-4" value="Exit" style="text;strokeColor=none;align=center;fillColor=none;html=1;verticalAlign=middle;whiteSpace=wrap;rounded=0;fontSize=18;fontStyle=0" vertex="1" parent="1">
          <mxGeometry x="670" y="180" width="120" height="60" as="geometry" />
        </mxCell>
        <mxCell id="pNxZEqLWITCMblgRoXEz-5" value="" style="endArrow=classic;html=1;rounded=0;" edge="1" parent="1">
          <mxGeometry width="50" height="50" relative="1" as="geometry">
            <mxPoint x="160" y="110" as="sourcePoint" />
            <mxPoint x="200" y="110" as="targetPoint" />
          </mxGeometry>
        </mxCell>
        <mxCell id="pNxZEqLWITCMblgRoXEz-6" value="" style="rounded=0;whiteSpace=wrap;html=1;" vertex="1" parent="1">
          <mxGeometry x="200" y="80" width="170" height="60" as="geometry" />
        </mxCell>
        <mxCell id="pNxZEqLWITCMblgRoXEz-7" value="(1) int i, total = 0;" style="text;strokeColor=none;align=center;fillColor=none;html=1;verticalAlign=middle;whiteSpace=wrap;rounded=0;fontSize=18;fontStyle=0" vertex="1" parent="1">
          <mxGeometry x="200" y="80" width="170" height="60" as="geometry" />
        </mxCell>
        <mxCell id="pNxZEqLWITCMblgRoXEz-8" value="" style="endArrow=classic;html=1;rounded=0;" edge="1" parent="1">
          <mxGeometry width="50" height="50" relative="1" as="geometry">
            <mxPoint x="284.09" y="140" as="sourcePoint" />
            <mxPoint x="284.09" y="180" as="targetPoint" />
          </mxGeometry>
        </mxCell>
        <mxCell id="pNxZEqLWITCMblgRoXEz-39" value="" style="endArrow=classic;html=1;rounded=0;entryX=0.5;entryY=0;entryDx=0;entryDy=0;" edge="1" parent="1">
          <mxGeometry width="50" height="50" relative="1" as="geometry">
            <mxPoint x="284.09" y="240" as="sourcePoint" />
            <mxPoint x="284.09" y="280" as="targetPoint" />
          </mxGeometry>
        </mxCell>
        <mxCell id="pNxZEqLWITCMblgRoXEz-64" value="" style="rounded=0;whiteSpace=wrap;html=1;" vertex="1" parent="1">
          <mxGeometry x="200" y="180" width="170" height="60" as="geometry" />
        </mxCell>
        <mxCell id="pNxZEqLWITCMblgRoXEz-65" value="(2) for (i = 0; i &amp;lt; n; i++)" style="text;strokeColor=none;align=center;fillColor=none;html=1;verticalAlign=middle;whiteSpace=wrap;rounded=0;fontSize=18;fontStyle=0" vertex="1" parent="1">
          <mxGeometry x="200" y="180" width="170" height="60" as="geometry" />
        </mxCell>
        <mxCell id="pNxZEqLWITCMblgRoXEz-68" value="" style="endArrow=classic;html=1;rounded=0;entryX=0;entryY=0.5;entryDx=0;entryDy=0;exitX=1;exitY=0.5;exitDx=0;exitDy=0;" edge="1" parent="1" source="pNxZEqLWITCMblgRoXEz-65" target="pNxZEqLWITCMblgRoXEz-70">
          <mxGeometry width="50" height="50" relative="1" as="geometry">
            <mxPoint x="370" y="209.09000000000003" as="sourcePoint" />
            <mxPoint x="426" y="209.09000000000003" as="targetPoint" />
          </mxGeometry>
        </mxCell>
        <mxCell id="pNxZEqLWITCMblgRoXEz-69" value="" style="rounded=0;whiteSpace=wrap;html=1;" vertex="1" parent="1">
          <mxGeometry x="440" y="180" width="170" height="60" as="geometry" />
        </mxCell>
        <mxCell id="pNxZEqLWITCMblgRoXEz-70" value="(4) return total;" style="text;strokeColor=none;align=center;fillColor=none;html=1;verticalAlign=middle;whiteSpace=wrap;rounded=0;fontSize=18;fontStyle=0" vertex="1" parent="1">
          <mxGeometry x="440" y="180" width="170" height="60" as="geometry" />
        </mxCell>
        <mxCell id="pNxZEqLWITCMblgRoXEz-71" value="" style="endArrow=classic;html=1;rounded=0;entryX=0;entryY=0.5;entryDx=0;entryDy=0;" edge="1" parent="1">
          <mxGeometry width="50" height="50" relative="1" as="geometry">
            <mxPoint x="610" y="210" as="sourcePoint" />
            <mxPoint x="666" y="210" as="targetPoint" />
          </mxGeometry>
        </mxCell>
        <mxCell id="pNxZEqLWITCMblgRoXEz-72" value="F" style="text;html=1;align=center;verticalAlign=middle;whiteSpace=wrap;rounded=0;fontSize=19;" vertex="1" parent="1">
          <mxGeometry x="390" y="180" width="36" height="30" as="geometry" />
        </mxCell>
        <mxCell id="pNxZEqLWITCMblgRoXEz-77" value="" style="rounded=0;whiteSpace=wrap;html=1;" vertex="1" parent="1">
          <mxGeometry x="165" y="280" width="240" height="60" as="geometry" />
        </mxCell>
        <mxCell id="pNxZEqLWITCMblgRoXEz-78" value="(5) total = total + a[i];" style="text;strokeColor=none;align=center;fillColor=none;html=1;verticalAlign=middle;whiteSpace=wrap;rounded=0;fontSize=18;fontStyle=0" vertex="1" parent="1">
          <mxGeometry x="205" y="280" width="170" height="60" as="geometry" />
        </mxCell>
        <mxCell id="pNxZEqLWITCMblgRoXEz-82" value="" style="endArrow=none;html=1;rounded=0;" edge="1" parent="1">
          <mxGeometry width="50" height="50" relative="1" as="geometry">
            <mxPoint x="80" y="309" as="sourcePoint" />
            <mxPoint x="165" y="309.09000000000003" as="targetPoint" />
          </mxGeometry>
        </mxCell>
        <mxCell id="pNxZEqLWITCMblgRoXEz-83" value="" style="endArrow=none;html=1;rounded=0;" edge="1" parent="1">
          <mxGeometry width="50" height="50" relative="1" as="geometry">
            <mxPoint x="80" y="310" as="sourcePoint" />
            <mxPoint x="80" y="210" as="targetPoint" />
          </mxGeometry>
        </mxCell>
        <mxCell id="pNxZEqLWITCMblgRoXEz-84" value="" style="endArrow=classic;html=1;rounded=0;entryX=0;entryY=0.5;entryDx=0;entryDy=0;" edge="1" parent="1" target="pNxZEqLWITCMblgRoXEz-65">
          <mxGeometry width="50" height="50" relative="1" as="geometry">
            <mxPoint x="80" y="209.09" as="sourcePoint" />
            <mxPoint x="185" y="209.09" as="targetPoint" />
          </mxGeometry>
        </mxCell>
        <mxCell id="pNxZEqLWITCMblgRoXEz-86" value="T" style="text;html=1;align=center;verticalAlign=middle;whiteSpace=wrap;rounded=0;fontSize=19;" vertex="1" parent="1">
          <mxGeometry x="280" y="240" width="36" height="30" as="geometry" />
        </mxCell>
      </root>
    </mxGraphModel>
  </diagram>
</mxfile>
